Coordinates
version=1
nRows=16
nColumns=40
inDegrees=yes

Units are S.I. units (second, meters, Newtons, ...)
If the header above contains a line with 'inDegrees', this indicates whether rotational values are in degrees (yes) or radians (no).

endheader
time	pelvis_tilt	pelvis_list	pelvis_rotation	pelvis_tx	pelvis_ty	pelvis_tz	hip_flexion_r	hip_adduction_r	hip_rotation_r	knee_angle_r	knee_angle_r_beta	ankle_angle_r	subtalar_angle_r	mtp_angle_r	hip_flexion_l	hip_adduction_l	hip_rotation_l	knee_angle_l	knee_angle_l_beta	ankle_angle_l	subtalar_angle_l	mtp_angle_l	lumbar_extension	lumbar_bending	lumbar_rotation	arm_flex_r	arm_add_r	arm_rot_r	elbow_flex_r	pro_sup_r	wrist_flex_r	wrist_dev_r	arm_flex_l	arm_add_l	arm_rot_l	elbow_flex_l	pro_sup_l	wrist_flex_l	wrist_dev_l
      1.58500000	     -4.93240832	     -9.02585880	      2.25947681	     -1.04487855	      0.96652896	      0.22859533	     45.06945041	      5.18518343	    -12.66100207	     47.34724397	      0.82636530	      7.63140594	      0.00000000	      0.00000000	    -27.13341157	    -12.94358508	      1.45573897	     15.90034413	      0.27751336	    -24.84304193	      0.00000000	      0.00000000	    -20.55965227	     13.75656052	     -9.73826950	    -47.84897660	    -37.39598572	    -20.90498915	    112.30887234	     88.09663585	      0.00000000	      0.00000000	      5.90839488	    -26.45226167	      3.29875854	    142.83080576	      1.55375081	      0.00000000	      0.00000000
      1.59000000	     -5.08676322	     -9.23911742	      2.36625330	     -1.01938498	      0.96709526	      0.22826275	     44.56168438	      5.56082383	    -12.89504012	     43.03967399	      0.75118402	      7.38086400	      0.00000000	      0.00000000	    -27.49607121	    -13.00953225	      3.49496139	     16.82971939	      0.29373402	    -24.29729354	      0.00000000	      0.00000000	    -20.26921817	     14.30522295	    -10.44862069	    -46.92865702	    -37.70074540	    -20.21630463	    112.32830790	     88.08725198	      0.00000000	      0.00000000	      4.38314653	    -26.62656416	      2.94785742	    143.64370835	      1.52826281	      0.00000000	      0.00000000
      1.59500000	     -5.18380854	     -9.38873294	      2.45772181	     -0.99390283	      0.96728096	      0.22789655	     43.93341542	      5.90505530	    -13.07106996	     38.83766890	      0.67784520	      7.10607477	      0.00000000	      0.00000000	    -27.72460972	    -12.96813846	      5.41405400	     18.20416195	      0.31772256	    -23.37160881	      0.00000000	      0.00000000	    -20.01726325	     14.77507068	    -10.79767173	    -46.34948787	    -37.65779237	    -19.93762097	    112.44577261	     88.06292476	      0.00000000	      0.00000000	      3.32044949	    -26.72950830	      3.10741348	    144.02861621	      1.52767380	      0.00000000	      0.00000000
      1.60000000	     -5.22091381	     -9.46233261	      2.50627620	     -0.96841586	      0.96704338	      0.22755734	     43.21881607	      6.21681394	    -13.17380223	     34.84457643	      0.60815259	      6.82892505	      0.00000000	      0.00000000	    -27.85319544	    -12.79827554	      7.09777802	     19.95906974	      0.34835148	    -22.20103885	      0.00000000	      0.00000000	    -19.81974134	     15.14667446	    -10.84804694	    -46.04234968	    -37.36121294	    -19.98322025	    112.66695928	     88.05307037	      0.00000000	      0.00000000	      2.57628642	    -26.79771068	      3.60772368	    144.11228725	      1.52537652	      0.00000000	      0.00000000
      1.60500000	     -5.21237019	     -9.44888346	      2.49633706	     -0.94291805	      0.96637618	      0.22730966	     42.46631363	      6.48689623	    -13.19704644	     31.15698067	      0.54379190	      6.57333689	      0.00000000	      0.00000000	    -27.89017825	    -12.49653018	      8.45919054	     22.02717598	      0.38444675	    -20.91223315	      0.00000000	      0.00000000	    -19.69150122	     15.38579540	    -11.18249733	    -45.23543407	    -37.46138701	    -19.47701533	    112.75655455	     88.02767018	      0.00000000	      0.00000000	      1.31519801	    -26.90607047	      3.61549265	    144.37741093	      1.52110591	      0.00000000	      0.00000000
      1.61000000	     -5.14122819	     -9.36520992	      2.40385965	     -0.91743330	      0.96530601	      0.22721120	     41.68605536	      6.74022615	    -13.13773600	     27.84861055	      0.48604995	      6.35744060	      0.00000000	      0.00000000	    -27.88457659	    -12.09157910	      9.39202922	     24.33179904	      0.42467001	    -19.61210679	      0.00000000	      0.00000000	    -19.63149212	     15.51663056	    -11.05876426	    -44.85271943	    -37.17478689	    -19.47039923	    112.99213831	     88.01477626	      0.00000000	      0.00000000	      0.53643934	    -26.98132609	      4.11330570	    144.25150322	      1.51340132	      0.00000000	      0.00000000
      1.61500000	     -5.03155835	     -9.21134032	      2.23424767	     -0.89196829	      0.96389664	      0.22729678	     40.91485568	      6.96661723	    -13.00275836	     24.96456454	      0.43571385	      6.18954184	      0.00000000	      0.00000000	    -27.82049746	    -11.61399138	      9.87819671	     26.80917256	      0.46790833	    -18.37252576	      0.00000000	      0.00000000	    -19.63077761	     15.51731655	    -11.05428085	    -44.11481286	    -37.12050248	    -19.07434145	    113.11535416	     87.98421943	      0.00000000	      0.00000000	     -0.53494152	    -27.07428054	      4.33204326	    144.15720338	      1.51051443	      0.00000000	      0.00000000
      1.62000000	     -4.88161857	     -8.99466097	      1.98245156	     -0.86656500	      0.96220598	      0.22759148	     40.16421009	      7.17183682	    -12.78813484	     22.54264729	      0.39344342	      6.06455035	      0.00000000	      0.00000000	    -27.71095094	    -11.09597083	      9.90594784	     29.40520212	      0.51321759	    -17.22471376	      0.00000000	      0.00000000	    -19.70124526	     15.41422471	    -10.71710924	    -43.63208438	    -36.77132798	    -19.00639848	    113.37452999	     87.98221311	      0.00000000	      0.00000000	     -1.31526170	    -27.12945996	      4.75717563	    143.79675835	      1.48534403	      0.00000000	      0.00000000
      1.62500000	     -4.70851488	     -8.75010708	      1.67962995	     -0.84118567	      0.96038164	      0.22805181	     39.40258208	      7.37346880	    -12.52623207	     20.48391639	      0.35751178	      5.90367162	      0.00000000	      0.00000000	    -27.54635812	    -10.61156951	      9.50313941	     32.04789600	      0.55934130	    -16.27203949	      0.00000000	      0.00000000	    -19.79940727	     15.22301624	    -10.53446939	    -42.71145506	    -36.69992871	    -18.47395477	    113.34760709	     87.93765098	      0.00000000	      0.00000000	     -2.40332534	    -27.17441841	      5.03189064	    143.42501228	      1.49618215	      0.00000000	      0.00000000
      1.63000000	     -4.50830730	     -8.44701794	      1.33233957	     -0.81588829	      0.95844391	      0.22867948	     38.65558884	      7.53112328	    -12.20798235	     18.86273431	      0.32921682	      5.71167439	      0.00000000	      0.00000000	    -27.32611448	    -10.14758741	      8.74193965	     34.72737677	      0.60610707	    -15.42418924	      0.00000000	      0.00000000	    -19.94139126	     14.93369466	    -10.10303780	    -41.93766924	    -36.38303810	    -18.15119277	    113.36822268	     87.92710365	      0.00000000	      0.00000000	     -3.23066317	    -27.19693844	      5.50721648	    142.77906106	      1.48356790	      0.00000000	      0.00000000
      1.63500000	     -4.29406182	     -8.10360957	      0.96465296	     -0.79064082	      0.95646686	      0.22943626	     37.90668324	      7.64986036	    -11.85306566	     17.61645738	      0.30746518	      5.45613126	      0.00000000	      0.00000000	    -27.04220376	     -9.74497102	      7.68043731	     37.40729894	      0.65288053	    -14.69290652	      0.00000000	      0.00000000	    -20.11842498	     14.56846672	     -9.87339082	    -40.76076598	    -36.25537893	    -17.43246017	    113.23557660	     87.88264523	      0.00000000	      0.00000000	     -4.42497877	    -27.13689791	      5.56485644	    142.16517978	      1.48278037	      0.00000000	      0.00000000
      1.64000000	     -4.05843717	     -7.71458184	      0.59851795	     -0.76545879	      0.95449832	      0.23027473	     37.14659633	      7.70692800	    -11.49122945	     16.73845208	      0.29214110	      5.07696064	      0.00000000	      0.00000000	    -26.70041506	     -9.40663450	      6.40708198	     40.08052494	      0.69953713	    -14.02716598	      0.00000000	      0.00000000	    -20.31148650	     14.12666541	     -9.54814527	    -39.56219313	    -36.00757636	    -16.73083957	    113.00811897	     87.86383340	      0.00000000	      0.00000000	     -5.48266420	    -27.06012868	      5.76353796	    141.31064889	      1.47627627	      0.00000000	      0.00000000
      1.64500000	     -3.80387086	     -7.29215722	      0.24626861	     -0.74034113	      0.95256123	      0.23116983	     36.37046857	      7.70573900	    -11.14624482	     16.20429068	      0.28281823	      4.55126717	      0.00000000	      0.00000000	    -26.30046410	     -9.14646734	      4.98367156	     42.74167369	      0.74598293	    -13.38625601	      0.00000000	      0.00000000	    -20.52070770	     13.62582447	     -9.25652779	    -38.20284048	    -35.75074470	    -15.89911226	    112.65581958	     87.84451977	      0.00000000	      0.00000000	     -6.57772901	    -26.92764670	      5.89028813	    140.32156736	      1.47007247	      0.00000000	      0.00000000
      1.65000000	     -3.52660805	     -6.85227306	     -0.08597222	     -0.71529857	      0.95065744	      0.23210096	     35.57924245	      7.65449440	    -10.85004861	     16.01249576	      0.27947077	      3.87475216	      0.00000000	      0.00000000	    -25.84865495	     -8.97394147	      3.46366985	     45.39608199	      0.79231110	    -12.71669078	      0.00000000	      0.00000000	    -20.73095951	     13.08865968	     -8.73892570	    -37.02502448	    -35.25037717	    -15.33321006	    112.24747878	     87.85907820	      0.00000000	      0.00000000	     -7.30852959	    -26.78329096	      6.33813061	    138.99949078	      1.44343203	      0.00000000	      0.00000000
      1.65500000	     -3.24583741	     -6.41375673	     -0.38092442	     -0.69033854	      0.94877653	      0.23305094	     34.79896969	      7.55828266	    -10.64403652	     16.16053609	      0.28205456	      3.05734002	      0.00000000	      0.00000000	    -25.31679862	     -8.90577184	      1.90778263	     48.06075186	      0.83881836	    -11.99290388	      0.00000000	      0.00000000	    -20.96869312	     12.53913606	     -8.72647923	    -35.11797251	    -35.15323969	    -13.97796372	    111.58808075	     87.84539368	      0.00000000	      0.00000000	     -8.74856904	    -26.51285237	      6.01829395	    137.88724117	      1.45556871	      0.00000000	      0.00000000
      1.66000000	     -2.95120556	     -6.00013447	     -0.65691322	     -0.66549880	      0.94689062	      0.23403599	     34.04178946	      7.44620418	    -10.54549689	     16.68376689	      0.29118666	      2.16774594	      0.00000000	      0.00000000	    -24.72263975	     -8.94449679	      0.33559147	     50.74601332	      0.88568501	    -11.17090376	      0.00000000	      0.00000000	    -21.18402814	     12.00350456	     -8.17778457	    -33.82503293	    -34.55948009	    -13.38198853	    110.98760998	     87.86526122	      0.00000000	      0.00000000	     -9.38094523	    -26.27584121	      6.41187353	    136.24050948	      1.42130808	      0.00000000	      0.00000000
